<?xml version="1.0" encoding="UTF-8" standalone="no"?>
<!-- Created with Inkscape (http://www.inkscape.org/) -->

<svg
   width="139.50699mm"
   height="114.45099mm"
   viewBox="0 0 139.50699 114.45099"
   version="1.1"
   id="svg5"
   xml:space="preserve"
   xmlns="http://www.w3.org/2000/svg"
   xmlns:svg="http://www.w3.org/2000/svg"><defs
     id="defs2" /><g
     id="layer1"
     transform="translate(-37.145478,-20.271707)"><path
       style="fill:#000000;stroke-width:0.352778"
       d="m 66.688664,134.30238 c -4.08308,-1.14091 -4.73192,-1.65698 -15.46495,-12.30052 -5.69232,-5.64486 -10.82148,-10.94076 -11.39814,-11.76866 -2.34919,-3.37273 -3.28582,-8.4638 -2.27938,-12.389621 1.29538,-5.05284 1.20651,-4.94918 23.12296,-26.96909 11.16886,-11.22159 21.259511,-21.08262 22.423681,-21.91342 3.20072,-2.28417 5.72513,-3.11884 9.525,-3.14932 3.33166,-0.0267 5.85246,0.58017 8.290285,1.99593 1.54505,0.89728 21.20001,20.3522 22.62748,22.39718 1.792,2.56721 2.51849,5.12566 2.52768,8.90167 0.006,2.67023 -0.15761,3.7816 -0.80742,5.46806 -0.87412,2.26862 -2.27505,4.51478 -3.50829,5.62495 l -0.76212,0.68607 -5.89353,-5.80069 c -3.24144,-3.19037 -9.58501,-9.4515 -14.09681,-13.91362 l -8.203295,-8.11294 -19.136301,19.13631 -19.1363,19.136301 8.0249,8.0249 8.0249,8.02491 6.60888,-6.60889 6.608891,-6.60887 -5.754491,-5.560891 -5.75449,-5.56088 6.02503,-5.99349 6.025041,-5.99348 6.55294,6.52265 c 7.15289,7.11983 8.32347,8.56002 9.326015,11.47394 1.43478,4.170281 1.24793,8.070541 -0.588135,12.276211 -0.82594,1.89189 -2.01027,3.24778 -9.09054,10.4074 -8.64011,8.73694 -11.097351,10.77853 -14.490881,12.0397 -2.75162,1.02261 -6.76726,1.24949 -9.34861,0.5282 z M 118.54701,109.2238 c -1.72317,-0.33162 -4.42758,-1.28672 -5.64445,-1.99341 -1.54505,-0.89728 -21.200015,-20.352211 -22.627485,-22.397191 -2.1351,-3.05872 -3.1414,-7.78848 -2.45684,-11.5475 0.471,-2.58634 2.44098,-6.70078 3.85778,-8.05721 l 1.04622,-1.00166 3.1228,3.12209 c 1.71754,1.71715 8.096725,7.94792 14.175955,13.84615 l 11.05315,10.72405 7.55678,-7.55064 7.55677,-7.55065 6.08238,6.08238 6.08237,6.08237 -7.75896,7.78899 c -8.27372,8.305721 -10.77763,10.368191 -14.05341,11.575781 -2.02473,0.7464 -6.25724,1.2105 -7.99306,0.87645 z m 36.07264,-38.661731 -6.0843,-6.10094 5.37754,-5.37753 5.37753,-5.37754 -8.02405,-8.02405 -8.02405,-8.024058 -12.61504,12.611388 -12.61504,12.61138 -6.08988,-6.09735 -6.08989,-6.09735 13.67741,-13.606695 c 12.76835,-12.702341 13.85326,-13.692394 16.32324,-14.896113 3.1404,-1.530444 6.1269,-2.145203 8.90121,-1.83228 2.44697,0.276001 5.53708,1.301142 7.07563,2.347334 1.67346,1.13793 20.94213,20.351174 22.17037,22.106604 2.13647,3.05347 3.14435,7.78587 2.45932,11.5475 -0.21201,1.16417 -0.96855,3.30729 -1.6812,4.7625 -1.12774,2.30279 -2.12284,3.48224 -7.67512,9.09698 l -6.37938,6.45116 z"
       id="path471" /></g></svg>
