<?xml version="1.0" encoding="UTF-8" standalone="no"?>
<!-- Created with Inkscape (http://www.inkscape.org/) -->

<svg
   width="139.46089mm"
   height="155.86748mm"
   viewBox="0 0 139.46089 155.86748"
   version="1.1"
   id="svg5"
   xml:space="preserve"
   inkscape:export-filename="bitmap.svg"
   inkscape:export-xdpi="96"
   inkscape:export-ydpi="96"
   xmlns:inkscape="http://www.inkscape.org/namespaces/inkscape"
   xmlns:sodipodi="http://sodipodi.sourceforge.net/DTD/sodipodi-0.dtd"
   xmlns="http://www.w3.org/2000/svg"
   xmlns:svg="http://www.w3.org/2000/svg"><sodipodi:namedview
     id="namedview7"
     pagecolor="#ffffff"
     bordercolor="#000000"
     borderopacity="0.25"
     inkscape:showpageshadow="2"
     inkscape:pageopacity="0.0"
     inkscape:pagecheckerboard="0"
     inkscape:deskcolor="#d1d1d1"
     inkscape:document-units="mm"
     showgrid="false" /><defs
     id="defs2" /><g
     inkscape:label="Layer 1"
     inkscape:groupmode="layer"
     id="layer1"
     transform="translate(-28.055272,-39.256537)"><path
       style="fill:#000000;stroke-width:0.352778"
       d="m 40.088788,194.57006 c -1.56667,-0.6824 -2.90389,-2.45211 -3.16413,-4.18748 -0.12416,-0.82794 -0.17346,-4.626 -0.10956,-8.44014 0.10642,-6.35175 0.17734,-7.01661 0.84354,-7.90798 1.89696,-2.53813 4.88053,-3.28265 7.69499,-1.92019 2.08191,1.00783 3.04293,2.88814 3.04293,5.95366 v 2.18168 h -1.76389 -1.76389 v -2.11667 c 0,-1.64629 -0.15678,-2.27345 -0.70555,-2.82222 -0.82655,-0.82655 -2.05448,-0.91011 -3.01938,-0.20547 -0.62969,0.45985 -0.69366,1.04689 -0.79502,7.29653 -0.0606,3.73804 -0.0207,7.15315 0.0887,7.58913 0.29539,1.17693 1.17848,1.90037 2.31975,1.90037 1.48567,0 2.11147,-1.12112 2.11147,-3.78267 v -2.21455 h 1.76389 1.76389 v 2.35806 c 0,3.20247 -0.92288,5.10376 -2.9548,6.0874 -1.70854,0.82708 -3.77871,0.91624 -5.35297,0.23054 z m 13.04336,-0.21616 c -0.895,-0.44303 -1.7276,-1.22706 -2.20486,-2.07623 -0.72187,-1.2844 -0.76684,-1.81386 -0.76684,-9.02945 0,-7.22676 0.0441,-7.74343 0.7705,-9.03596 1.79031,-3.18543 6.85753,-3.71477 9.33805,-0.97548 1.23342,1.3621 1.52918,3.29842 1.52918,10.01144 0,3.4925 -0.17308,6.985 -0.38462,7.76111 -0.95897,3.51825 -4.79818,5.06877 -8.28141,3.34457 z m 3.97359,-2.73979 c 0.91909,-0.58441 1.16844,-2.43904 1.1634,-8.65344 -0.004,-4.44219 -0.1417,-6.68647 -0.44902,-7.29717 -0.59727,-1.18689 -2.39502,-1.3841 -3.40554,-0.37358 -0.68552,0.68553 -0.72635,1.12845 -0.72635,7.87981 0,5.90347 0.096,7.29045 0.54917,7.9375 0.55143,0.78727 2.0194,1.04669 2.86834,0.50688 z m 6.813037,-8.1895 v -11.64167 h 1.89108 1.89107 l 1.67405,5.90903 c 0.92072,3.24997 1.79157,6.03542 1.93521,6.1899 0.14364,0.15448 0.18455,-2.50458 0.0909,-5.90903 l -0.17027,-6.1899 h 1.81204 1.81203 v 11.64167 11.64167 h -1.87426 -1.87426 l -1.80268,-6.26181 -1.80269,-6.2618 -0.0272,6.2618 -0.0272,6.26181 h -1.76389 -1.76389 z m 13.05278,0 v -11.64167 h 1.89107 1.89108 l 1.67404,5.90903 c 0.92073,3.24997 1.79157,6.03542 1.93521,6.1899 0.14365,0.15448 0.18455,-2.50458 0.0909,-5.90903 l -0.17028,-6.1899 h 1.81204 1.81204 v 11.64167 11.64167 h -1.87426 -1.87427 l -1.80268,-6.26181 -1.80268,-6.2618 -0.0272,6.2618 -0.0272,6.26181 h -1.76389 -1.76389 z m 13.05278,0 v -11.64167 h 5.29167 5.291655 v 1.5875 1.5875 h -3.527765 -3.52778 v 3.175 3.175 h 3.52778 3.527765 v 1.5875 1.5875 h -3.527765 -3.52778 v 3.70417 3.70417 h 3.52778 3.527765 v 1.5875 1.5875 h -5.291655 -5.29167 z m 15.328335,11.14545 c -1.74462,-0.75991 -2.89851,-2.424 -3.16614,-4.56605 -0.13019,-1.04201 -0.18151,-4.84226 -0.11404,-8.445 0.11155,-5.95659 0.18862,-6.63873 0.85003,-7.5241 1.8963,-2.53842 4.88029,-3.28322 7.69499,-1.92064 2.08191,1.00783 3.04293,2.88814 3.04293,5.95366 v 2.18168 h -1.76389 -1.76389 v -2.11667 c 0,-1.64629 -0.15678,-2.27345 -0.70555,-2.82222 -0.82655,-0.82655 -2.05448,-0.91011 -3.01938,-0.20547 -0.62969,0.45985 -0.69366,1.04689 -0.79502,7.29653 -0.0606,3.73804 -0.0207,7.15315 0.0887,7.58913 0.29539,1.17693 1.17849,1.90037 2.31976,1.90037 1.48567,0 2.11147,-1.12112 2.11147,-3.78267 v -2.21455 h 1.76389 1.76389 v 2.35806 c 0,3.20247 -0.92288,5.10376 -2.95481,6.0874 -1.70853,0.82708 -3.77871,0.91624 -5.35296,0.23054 z m 13.24666,-9.55795 v -10.05417 h -1.76389 -1.76389 v -1.5875 -1.5875 h 5.46806 5.46805 v 1.5875 1.5875 l -1.85208,-2.6e-4 -1.85208,-2.7e-4 0.10368,10.05444 0.10369,10.05443 h -1.95577 -1.95577 z m 8.81945,-1.5875 v -11.64167 h 5.29166 5.29167 v 1.5875 1.5875 h -3.52778 -3.52778 v 3.175 3.175 h 3.52778 3.52778 v 1.5875 1.5875 h -3.52778 -3.52778 v 3.70417 3.70417 h 3.52778 3.52778 v 1.5875 1.5875 h -5.29167 -5.29166 z m 12.34722,0.0288 v -11.67044 l 3.61597,7e-4 c 4.16395,7.1e-4 5.58287,0.50296 6.87214,2.43288 0.77667,1.16261 0.80078,1.45218 0.80078,9.61837 v 8.41968 l -1.20674,1.31774 -1.20673,1.31773 -4.43771,0.11697 -4.43771,0.11696 v -11.67043 z m 7.25271,7.93716 c 0.64052,-0.46837 0.68479,-0.98337 0.68479,-7.96595 0,-8.48469 0.006,-8.46667 -2.88965,-8.46667 h -1.52007 v 8.46667 8.46667 h 1.52007 c 0.83604,0 1.82823,-0.22533 2.20486,-0.50073 z M 58.274338,153.40624 c -0.87313,-0.16926 -2.69875,-0.85724 -4.05695,-1.52884 -2.21345,-1.09452 -3.56905,-2.3294 -13.0771,-11.91263 -9.50361,-9.57876 -10.70901,-10.92292 -11.58145,-12.91468 -2.12792,-4.85794 -1.99993,-9.41554 0.40144,-14.29511 1.16488,-2.36701 2.62585,-3.91164 22.45292,-23.738711 19.827077,-19.827074 21.371707,-21.288043 23.738717,-22.452919 5.08742,-2.503667 9.86239,-2.540901 14.75351,-0.115044 2.21125,1.096715 3.5827,2.346399 13.077955,11.916734 11.65222,11.744357 12.09086,12.335305 12.93429,17.425215 0.6937,4.186372 -1.17235,10.348465 -3.93546,12.995695 l -1.06412,1.01948 -14.080365,-13.814003 c -7.74421,-7.597712 -14.22003,-13.81402 -14.39071,-13.81402 -0.17068,0 -8.84019,8.535123 -19.26557,18.966943 l -18.955247,18.96693 8.20288,8.19731 8.20289,8.19731 6.626597,-6.63349 6.6266,-6.63349 -1.85231,-1.74535 c -1.01877,-0.95993 -3.64828,-3.49159 -5.84335,-5.62589 l -3.991047,-3.88056 6.004857,-5.99358 6.00485,-5.993573 6.89522,6.875513 c 5.89322,5.8764 7.07379,7.23451 8.12412,9.34583 2.41136,4.84721 2.3927,9.70699 -0.056,14.60175 -1.03099,2.06085 -2.36248,3.53622 -9.92931,11.00231 -9.42361,9.29817 -10.87162,10.37938 -15.29787,11.42272 -2.481827,0.58501 -4.251527,0.62697 -6.669937,0.15815 z m 50.447212,-25.4 c -0.87312,-0.16926 -2.69875,-0.85724 -4.05694,-1.52884 -2.21346,-1.09452 -3.56905,-2.3294 -13.077095,-11.91263 -11.65223,-11.74435 -12.09087,-12.3353 -12.9343,-17.425213 -0.67744,-4.088262 0.86558,-9.489459 3.60099,-12.604931 l 1.13942,-1.297729 7.10772,6.780978 c 3.90924,3.729539 10.365195,9.998175 14.346565,13.930305 l 7.23886,7.14932 7.57563,-7.58177 7.57563,-7.581789 5.9994,6.013179 5.9994,6.01316 -8.64305,8.54414 c -9.32391,9.21719 -10.77522,10.30013 -15.20228,11.34367 -2.48184,0.58501 -4.25154,0.62697 -6.66995,0.15815 z m 36.88192,-38.391568 c -3.28932,-3.300346 -5.9087,-6.079123 -5.82084,-6.175061 0.0879,-0.09594 2.49935,-2.525854 5.35885,-5.399818 l 5.19909,-5.225383 -8.20126,-8.195695 -8.20127,-8.195693 -12.51072,12.524414 c -6.88089,6.888427 -12.59604,12.524415 -12.70033,12.524415 -0.10428,0 -2.851,-2.664848 -6.10381,-5.921882 L 96.708995,69.628086 110.38819,56.029868 c 12.43859,-12.364953 13.90881,-13.712232 16.21095,-14.855341 5.06519,-2.515089 9.85435,-2.556061 14.7535,-0.126221 2.21125,1.096716 3.5827,2.346397 13.07796,11.916734 9.50361,9.578755 10.70901,10.922919 11.58146,12.914672 2.13484,4.873745 1.99969,9.45381 -0.42183,14.295113 -1.06602,2.131282 -2.27391,3.552684 -7.63625,8.986111 l -6.36993,6.454366 z"
       id="path535" /></g></svg>
